<svg width="25" height="30" viewBox="0 0 25 30" fill="none" xmlns="http://www.w3.org/2000/svg">
<path d="M6.25 15C6.25 11.5482 9.04822 8.75 12.5 8.75C15.9518 8.75 18.75 11.5482 18.75 15L25 15C25 8.09644 19.4036 2.5 12.5 2.5C5.59644 2.5 6.03528e-07 8.09644 0 15C-6.03528e-07 21.9036 5.59644 27.5 12.5 27.5L12.5 21.25C9.04822 21.25 6.25 18.4518 6.25 15Z" fill="#FFD369"/>
<path opacity="0.5" d="M12.5 15H18.75V21.25H12.5V15Z" fill="#FFD369"/>
<path d="M23.3277 21.25H18.75V25.8277C20.6477 24.73 22.23 23.1477 23.3277 21.25Z" fill="#FFD369"/>
</svg>
